<?xml version="1.0" encoding="utf-8"?>
<!-- Generator: Adobe Illustrator 22.1.0, SVG Export Plug-In . SVG Version: 6.00 Build 0)  -->
<svg version="1.1" id="Слой_1" xmlns="http://www.w3.org/2000/svg" xmlns:xlink="http://www.w3.org/1999/xlink" x="0px" y="0px"
	 viewBox="0 0 38 38.1" style="enable-background:new 0 0 38 38.1;" xml:space="preserve">
<style type="text/css">
	.st0{fill:#349A89;}
</style>
<path class="st0" d="M0,18.1L0,18.1c0-1.1,0.9-2,2-2h34c1.1,0,2,0.9,2,2l0,0c0,1.1-0.9,2-2,2H2C0.9,20.1,0,19.2,0,18.1z"/>
<path class="st0" d="M20,0.1L20,0.1c1.1,0,2,0.9,2,2v34c0,1.1-0.9,2-2,2l0,0c-1.1,0-2-0.9-2-2v-34C18,1,18.9,0.1,20,0.1z"/>
</svg>
